<svg width="36" height="36" viewBox="0 0 36 36" fill="none" xmlns="http://www.w3.org/2000/svg">
<path fill-rule="evenodd" clip-rule="evenodd" d="M10.7996 10.8V8.99998C10.7996 6.01764 13.2173 3.59998 16.1996 3.59998H19.7996C22.7819 3.59998 25.1996 6.01764 25.1996 8.99998V10.8H28.7996C30.7878 10.8 32.3996 12.4117 32.3996 14.4V20.8273C27.917 22.4905 23.0664 23.3999 17.9997 23.3999C12.9329 23.3999 8.08227 22.4905 3.59961 20.8273V14.4C3.59961 12.4117 5.21138 10.8 7.19961 10.8H10.7996ZM14.3996 8.99998C14.3996 8.00586 15.2055 7.19998 16.1996 7.19998H19.7996C20.7937 7.19998 21.5996 8.00586 21.5996 8.99998V10.8H14.3996V8.99998ZM16.1996 18C16.1996 17.0059 17.0055 16.2 17.9996 16.2H18.0176C19.0117 16.2 19.8176 17.0059 19.8176 18C19.8176 18.9941 19.0117 19.8 18.0176 19.8H17.9996C17.0055 19.8 16.1996 18.9941 16.1996 18Z" fill="#159EEC"/>
<path d="M3.59961 24.646V28.8C3.59961 30.7882 5.21138 32.4 7.19961 32.4H28.7996C30.7878 32.4 32.3996 30.7882 32.3996 28.8V24.6461C27.8766 26.1728 23.0331 26.9999 17.9997 26.9999C12.9661 26.9999 8.12264 26.1728 3.59961 24.646Z" fill="#159EEC"/>
</svg>
