<svg width="36" height="36" viewBox="0 0 36 36" fill="none" xmlns="http://www.w3.org/2000/svg">
<path fill-rule="evenodd" clip-rule="evenodd" d="M17.9996 32.4C25.9525 32.4 32.3996 25.9529 32.3996 18C32.3996 10.0471 25.9525 3.59998 17.9996 3.59998C10.0467 3.59998 3.59961 10.0471 3.59961 18C3.59961 25.9529 10.0467 32.4 17.9996 32.4ZM24.6724 15.6728C25.3753 14.9698 25.3753 13.8301 24.6724 13.1272C23.9695 12.4242 22.8298 12.4242 22.1268 13.1272L16.1996 19.0544L13.8724 16.7272C13.1695 16.0242 12.0298 16.0242 11.3268 16.7272C10.6239 17.4301 10.6239 18.5698 11.3268 19.2728L14.9268 22.8728C15.6298 23.5757 16.7695 23.5757 17.4724 22.8728L24.6724 15.6728Z" fill="#159EEC"/>
</svg>
